HIERARCHY
ROOT Hips
{
	OFFSET -0.001795 -0.223333 0.028219
	CHANNELS 6 Xposition Yposition Zposition Zrotation Yrotation Xrotation 
	JOINT LeftUpLeg
	{
		OFFSET 0.069520 -0.091406 -0.006815
		CHANNELS 3 Zrotation Yrotation Xrotation
		JOINT LeftLeg
		{
			OFFSET 0.034277 -0.375199 -0.004496
			CHANNELS 3 Zrotation Yrotation Xrotation
			JOINT LeftFoot
			{
				OFFSET -0.013596 -0.397961 -0.043693
				CHANNELS 3 Zrotation Yrotation Xrotation
				JOINT LeftToe
				{
					OFFSET 0.026358 -0.055791 0.119288
					CHANNELS 3 Zrotation Yrotation Xrotation
					End Site
					{
						OFFSET 0.000000 0.000000 0.000000
					}
				}
			}
		}
	}
	JOINT RightUpLeg
	{
		OFFSET -0.067670 -0.090522 -0.004320
		CHANNELS 3 Zrotation Yrotation Xrotation
		JOINT RightLeg
		{
			OFFSET -0.038290 -0.382569 -0.008850
			CHANNELS 3 Zrotation Yrotation Xrotation
			JOINT RightFoot
			{
				OFFSET 0.015774 -0.398415 -0.042312
				CHANNELS 3 Zrotation Yrotation Xrotation
				JOINT RightToe
				{
					OFFSET -0.025372 -0.048144 0.123348
					CHANNELS 3 Zrotation Yrotation Xrotation
					End Site
					{
						OFFSET 0.000000 0.000000 0.000000
					}
				}
			}
		}
	}
	JOINT Spine
	{
		OFFSET -0.002533 0.108963 -0.026696
		CHANNELS 3 Zrotation Yrotation Xrotation
		JOINT Spine1
		{
			OFFSET 0.005487 0.135180 0.001092
			CHANNELS 3 Zrotation Yrotation Xrotation
			JOINT Spine2
			{
				OFFSET 0.001457 0.052922 0.025425
				CHANNELS 3 Zrotation Yrotation Xrotation
				JOINT Neck
				{
					OFFSET -0.002778 0.213870 -0.042857
					CHANNELS 3 Zrotation Yrotation Xrotation
					JOINT Head
					{
						OFFSET 0.005152 0.064970 0.051349
						CHANNELS 3 Zrotation Yrotation Xrotation
						End Site
						{
							OFFSET 0.000000 0.000000 0.000000
						}
					}
				}
				JOINT LeftShoulder
				{
					OFFSET 0.078845 0.121749 -0.034090
					CHANNELS 3 Zrotation Yrotation Xrotation
					JOINT LeftArm
					{
						OFFSET 0.090977 0.030469 -0.008868
						CHANNELS 3 Zrotation Yrotation Xrotation
						JOINT LeftForeArm
						{
							OFFSET 0.259612 -0.012772 -0.027456
							CHANNELS 3 Zrotation Yrotation Xrotation
							JOINT LeftHand
							{
								OFFSET 0.249234 0.008986 -0.001171
								CHANNELS 3 Zrotation Yrotation Xrotation
								End Site
								{
									OFFSET 0.000000 0.000000 0.000000
								}
							}
						}
					}
				}
				JOINT RightShoulder
				{
					OFFSET -0.081759 0.118833 -0.038615
					CHANNELS 3 Zrotation Yrotation Xrotation
					JOINT RightArm
					{
						OFFSET -0.096012 0.032551 -0.009143
						CHANNELS 3 Zrotation Yrotation Xrotation
						JOINT RightForeArm
						{
							OFFSET -0.253742 -0.013329 -0.021401
							CHANNELS 3 Zrotation Yrotation Xrotation
							JOINT RightHand
							{
								OFFSET -0.255298 0.007772 -0.005559
								CHANNELS 3 Zrotation Yrotation Xrotation
								End Site
								{
									OFFSET 0.000000 0.000000 0.000000
								}
							}
						}
					}
				}
			}
		}
	}
}
MOTION
Frames: 9
Frame Time: 0.050000
0.000000 0.949304 0.000000 -1.976811 -2.347369 3.021091 9.944108 -0.114685 1.304397 -2.126113 0.324156 -5.311642 3.633498 9.932401 10.171709 0.000000 0.000000 0.000000 -5.798762 0.258986 -1.110646 2.542158 -0.305337 -2.988835 -5.925403 -16.535593 15.186869 0.000000 0.000000 0.000000 -2.622583 0.040378 0.503438 5.070547 -0.714399 -23.078231 -0.360692 0.821233 27.606748 -0.363010 1.548264 -23.108884 0.000000 0.000000 0.000000 -25.415172 0.223423 -1.418191 -52.975898 -7.431359 -5.600099 -11.452910 -26.476016 4.178636 0.000000 0.000000 0.000000 16.870174 6.186795 2.235407 60.648025 4.565910 -6.251746 6.013939 27.929273 2.721402 0.000000 0.000000 0.000000 
-0.000035 0.948215 0.000324 -2.063974 -2.994877 3.369453 10.290913 -0.108994 1.766666 -2.682708 0.380036 -6.445819 3.917093 10.377068 10.329662 0.000000 0.000000 0.000000 -5.792811 0.299646 -1.680410 2.599821 -0.302277 -2.804041 -5.685675 -16.162435 14.760742 0.000000 0.000000 0.000000 -2.704188 0.066656 -0.536216 4.847397 -0.726021 -22.306517 -0.183798 1.424739 27.392834 -0.721602 1.813240 -23.113859 0.000000 0.000000 0.000000 -25.586950 0.718792 -1.830592 -52.950027 -8.160098 -5.242591 -12.234128 -26.214350 4.305047 0.000000 0.000000 0.000000 16.617154 6.189600 2.272997 61.824625 4.007995 -6.609708 5.634216 29.125858 2.794082 0.000000 0.000000 0.000000 
-0.000007 0.947781 0.000438 -1.794952 -2.961430 3.135787 10.202075 -0.104383 1.253485 -3.032930 0.388153 -5.127082 3.959141 10.369994 9.856629 0.000000 0.000000 0.000000 -6.045278 0.304133 -1.718249 2.520870 -0.287901 -2.272878 -5.761329 -16.253813 14.449714 0.000000 0.000000 0.000000 -2.867906 0.069223 -0.651766 4.974068 -0.738286 -22.580002 -0.447672 1.387334 28.033672 -0.049841 1.356025 -22.492068 0.000000 0.000000 0.000000 -26.059655 0.560658 -1.724199 -52.162356 -8.384853 -5.192798 -12.267469 -25.951258 4.271144 0.000000 0.000000 0.000000 17.629526 6.786461 2.587382 60.792532 3.823676 -6.682646 4.976978 28.851973 2.587305 0.000000 0.000000 0.000000 
-0.000004 0.946946 0.000474 -1.840870 -3.369105 3.483232 10.582757 -0.106666 1.115432 -3.686275 0.438779 -5.354874 4.170773 10.683215 9.805309 0.000000 0.000000 0.000000 -6.146211 0.349219 -2.423348 2.573791 -0.280192 -1.717022 -5.423845 -15.667375 13.934650 0.000000 0.000000 0.000000 -3.102270 0.090164 -1.435021 5.041259 -0.769449 -22.424099 -0.474385 0.917602 27.924589 -0.467527 1.446139 -21.329926 0.000000 0.000000 0.000000 -26.334126 1.234844 -1.937726 -52.083996 -8.309360 -5.244767 -12.514771 -26.039984 4.381515 0.000000 0.000000 0.000000 17.251854 7.353500 2.697762 61.146899 3.267819 -6.969201 5.181486 29.407806 2.650814 0.000000 0.000000 0.000000 
-0.000032 0.946996 0.000511 -1.731843 -3.109266 3.151815 10.717001 -0.109473 1.089844 -4.072989 0.463749 -4.798193 4.032531 10.442198 9.618453 0.000000 0.000000 0.000000 -6.329001 0.326242 -2.007344 2.414410 -0.267839 -1.664583 -5.113718 -15.097477 13.886514 0.000000 0.000000 0.000000 -3.217653 0.084131 -1.247025 5.264828 -0.873120 -21.782338 -0.763402 0.970296 27.435041 -0.387707 1.428100 -21.147068 0.000000 0.000000 0.000000 -26.060978 1.117824 -1.950944 -52.178675 -8.260100 -5.191039 -13.423719 -26.329615 4.630192 0.000000 0.000000 0.000000 17.597686 6.947255 2.523393 60.921262 3.005290 -7.027685 6.091077 29.562257 2.898424 0.000000 0.000000 0.000000 
-0.000011 0.947202 0.000536 -1.777081 -2.957972 3.088229 11.032871 -0.118715 1.217264 -4.513501 0.494522 -4.960023 3.919742 10.277375 9.691486 0.000000 0.000000 0.000000 -6.278703 0.315205 -1.852511 2.038123 -0.237241 -1.653034 -4.626214 -14.237518 13.880458 0.000000 0.000000 0.000000 -3.579964 0.088362 -1.378147 5.462138 -0.905497 -21.982671 -0.648342 0.550775 27.937402 -0.456340 1.411757 -21.120479 0.000000 0.000000 0.000000 -26.166849 1.484443 -2.063530 -52.084244 -8.410236 -5.200487 -14.022253 -26.213232 4.777587 0.000000 0.000000 0.000000 17.052795 6.986956 2.484445 61.062008 2.864843 -7.174880 6.525675 29.584464 2.997007 0.000000 0.000000 0.000000 
-0.000019 0.947168 0.000513 -1.810009 -2.862401 2.903400 11.149011 -0.119743 1.258605 -4.629532 0.503356 -4.718201 3.873526 10.188851 9.580006 0.000000 0.000000 0.000000 -6.250429 0.305413 -1.736881 1.819088 -0.212592 -1.360210 -4.321776 -13.667186 13.687188 0.000000 0.000000 0.000000 -3.553396 0.083244 -1.186036 5.344316 -0.893513 -21.744272 -0.678429 0.430417 27.943701 -0.279463 1.279811 -20.998068 0.000000 0.000000 0.000000 -26.033451 1.567291 -2.084691 -52.066962 -8.005926 -5.375328 -14.747538 -26.746177 5.068465 0.000000 0.000000 0.000000 17.051074 6.986047 2.470749 61.119738 2.581616 -7.331658 6.995172 30.002328 3.165334 0.000000 0.000000 0.000000 
-0.000014 0.947195 0.000462 -1.902221 -2.911495 2.645815 11.177506 -0.112688 1.337088 -4.503954 0.496277 -4.335303 3.908333 10.221124 9.436757 0.000000 0.000000 0.000000 -5.987409 0.287640 -1.550830 1.649379 -0.192921 -1.160903 -4.429311 -13.836486 13.529183 0.000000 0.000000 0.000000 -3.525805 0.078165 -1.031038 5.270603 -0.893381 -21.538530 -0.576664 0.658669 28.137014 -0.150447 1.207561 -20.569515 0.000000 0.000000 0.000000 -25.824678 1.282033 -1.943225 -51.833822 -7.667118 -5.506388 -15.524221 -27.478435 5.406231 0.000000 0.000000 0.000000 16.926886 6.989493 2.527727 61.413320 2.459336 -7.450861 7.246940 30.438777 3.308274 0.000000 0.000000 0.000000 
-0.000015 0.947249 0.000375 -2.001484 -2.923211 2.490368 11.207607 -0.109582 1.450824 -4.363224 0.485772 -4.229990 3.917161 10.227169 9.382278 0.000000 0.000000 0.000000 -5.814064 0.271131 -1.337663 1.548061 -0.185380 -1.211399 -4.406632 -13.793266 13.498893 0.000000 0.000000 0.000000 -3.526108 0.075232 -0.939000 5.220042 -0.899556 -21.306703 -0.468739 0.790152 28.145725 -0.164262 1.225948 -20.331257 0.000000 0.000000 0.000000 -25.454427 1.258325 -1.936273 -51.984798 -7.425102 -5.610786 -16.009262 -27.790693 5.595298 0.000000 0.000000 0.000000 16.805580 7.052319 2.589526 61.342379 2.133402 -7.611830 7.676008 30.787313 3.470608 0.000000 0.000000 0.000000 
